<svg width="183" height="183" viewBox="0 0 183 183" fill="none" xmlns="http://www.w3.org/2000/svg">
<g clip-path="url(#clip0)">
<path d="M181.8 71.6003C181.1 53.4003 170.8 38.0003 156.2 30.5003C154.1 29.4003 152.4 27.8003 151.3 25.7003C148.8 21.1003 145.5 16.8003 141.4 13.0003C128.1 0.700324 109.9 -2.99968 94.3001 2.00032C92.1001 2.70032 89.7001 2.70032 87.5001 2.10032C82.5001 0.600324 77.1001 -0.0996754 71.5001 0.100325C53.5001 1.00032 38.1001 11.3003 30.6001 25.8003C29.5001 27.9003 27.9001 29.6003 25.8001 30.7003C21.2001 33.2003 16.9001 36.5003 13.1001 40.6003C0.800056 53.9003 -2.89994 72.1003 2.10006 87.7003C2.80006 89.9003 2.80006 92.3003 2.20006 94.5003C0.700056 99.5003 5.60433e-05 104.9 0.200056 110.5C0.900056 128.7 11.2001 144.1 25.8001 151.6C27.9001 152.7 29.6001 154.3 30.7001 156.4C33.2001 161 36.5001 165.3 40.6001 169.1C53.9001 181.4 72.1 185.1 87.7001 180.1C89.9001 179.4 92.3001 179.4 94.5001 180C99.5001 181.5 104.9 182.2 110.5 182C128.7 181.3 144.1 171 151.6 156.4C152.7 154.3 154.3 152.6 156.4 151.5C161 149 165.3 145.7 169.1 141.6C181.4 128.3 185.1 110.1 180.1 94.5003C179.4 92.3003 179.4 89.9003 180 87.7003C181.4 82.6003 182.1 77.2003 181.8 71.6003Z" fill="white"/>
<path d="M74.4001 179.701C62.6001 179.701 50.9001 175.201 41.8001 166.801C37.9001 163.201 34.6001 159.001 32.1001 154.301C31.2001 152.601 29.7001 151.201 28.0001 150.301C13.1001 142.601 3.40011 127.001 2.70011 109.701C2.50011 104.401 3.20011 99.1007 4.70011 94.0007C5.30011 92.1007 5.20011 90.1007 4.60011 88.2007C-0.499889 72.3007 3.60011 54.4007 15.4001 41.7007C19.0001 37.8007 23.2001 34.5007 27.9001 32.0007C29.6001 31.1007 31.0001 29.6007 31.9001 27.9007C39.6001 13.1007 55.1001 3.40072 72.4001 2.70072C77.7001 2.50072 83.0001 3.20072 88.1001 4.70072C90.0001 5.20072 92.0001 5.20072 93.9001 4.60072C109.8 -0.499279 127.7 3.60072 140.4 15.4007C144.3 19.0007 147.6 23.2007 150.1 27.9007C151 29.6007 152.5 31.0007 154.2 31.9007C169.1 39.6007 178.8 55.1007 179.4 72.4007C179.6 77.8007 179 83.0007 177.5 88.1007C176.9 90.0007 177 92.0007 177.6 93.9007C182.7 109.801 178.6 127.701 166.8 140.401C163.2 144.301 159 147.601 154.3 150.101C152.6 151.001 151.2 152.501 150.3 154.201C142.6 169.101 127.1 178.801 109.8 179.401C104.4 179.601 99.2001 179.001 94.1001 177.501C92.2001 176.901 90.2001 177.001 88.3001 177.601C83.8001 179.001 79.1001 179.701 74.4001 179.701ZM74.3001 5.40072C73.7001 5.40072 73.1001 5.40072 72.5001 5.40072C56.2001 6.00072 41.5001 15.1007 34.3001 29.2007C33.2001 31.4007 31.4001 33.2007 29.2001 34.4007C24.8001 36.8007 20.8001 39.9007 17.4001 43.6007C6.30011 55.6007 2.40011 72.4007 7.20011 87.4007C8.00011 89.8007 8.00011 92.3007 7.30011 94.7007C5.90011 99.5007 5.30011 104.501 5.50011 109.601C6.10011 125.901 15.2001 140.601 29.3001 147.801C31.5001 148.901 33.3001 150.701 34.5001 152.901C36.9001 157.301 40.0001 161.301 43.7001 164.701C55.7001 175.801 72.5001 179.701 87.5001 174.901C89.9001 174.101 92.4001 174.101 94.8001 174.801C99.6001 176.201 104.6 176.801 109.7 176.601C126 176.001 140.7 166.901 147.9 152.801C149 150.601 150.8 148.801 153 147.601C157.4 145.201 161.4 142.101 164.8 138.401C175.9 126.401 179.8 109.601 175 94.6007C174.2 92.2007 174.2 89.7007 174.9 87.3007C176.3 82.5007 176.9 77.5007 176.7 72.4007C176.1 56.1007 167 41.4007 152.9 34.2007C150.7 33.1007 148.9 31.3007 147.7 29.1007C145.3 24.7007 142.2 20.7007 138.5 17.3007C126.5 6.20072 109.7 2.30072 94.7001 7.10072C92.3001 7.90072 89.8001 7.90072 87.4001 7.20072C83.1001 6.00072 78.8001 5.40072 74.3001 5.40072Z" fill="#1C1C1C"/>
<path d="M164.4 75.4001C163.8 60.7001 155.5 48.3001 143.7 42.2001C142 41.3001 140.7 40.0001 139.8 38.3001C137.8 34.6001 135.1 31.1001 131.8 28.1001C121 18.1001 106.3 15.2001 93.7 19.2001C91.9 19.8001 90 19.8001 88.2 19.3001C84.1 18.1001 79.8 17.5001 75.3 17.7001C60.6 18.3001 48.2 26.6001 42.1 38.4001C41.2 40.1001 39.9 41.4001 38.2 42.3001C34.5 44.3001 31 47.0001 28 50.3001C18 61.1001 15.1 75.8001 19.1 88.4001C19.7 90.2001 19.7 92.1001 19.2 93.9001C18 98.0001 17.4 102.3 17.6 106.8C18.2 121.5 26.5 133.9 38.3 140C40 140.9 41.3 142.2 42.2 143.9C44.2 147.6 46.9 151.1 50.2 154.1C61 164.1 75.7 167 88.3 163C90.1 162.4 92 162.4 93.8 162.9C97.9 164.1 102.2 164.7 106.7 164.5C121.4 163.9 133.8 155.6 139.9 143.8C140.8 142.1 142.1 140.8 143.8 139.9C147.5 137.9 151 135.2 154 131.9C164 121.1 166.9 106.4 162.9 93.8001C162.3 92.0001 162.3 90.1001 162.8 88.3001C164.1 84.2001 164.6 79.8001 164.4 75.4001Z" fill="#1C1C1C"/>
<path d="M57.4001 17.6C58.6704 17.6 59.7001 16.5703 59.7001 15.3C59.7001 14.0297 58.6704 13 57.4001 13C56.1298 13 55.1001 14.0297 55.1001 15.3C55.1001 16.5703 56.1298 17.6 57.4001 17.6Z" fill="#1C1C1C"/>
<path d="M13.7 63.6C14.9703 63.6 16 62.5703 16 61.3C16 60.0297 14.9703 59 13.7 59C12.4298 59 11.4 60.0297 11.4 61.3C11.4 62.5703 12.4298 63.6 13.7 63.6Z" fill="#1C1C1C"/>
<path d="M15.3 127C16.5703 127 17.6 125.971 17.6 124.7C17.6 123.43 16.5703 122.4 15.3 122.4C14.0297 122.4 13 123.43 13 124.7C13 125.971 14.0297 127 15.3 127Z" fill="#1C1C1C"/>
<path d="M61.3 170.701C62.5703 170.701 63.6 169.671 63.6 168.401C63.6 167.13 62.5703 166.101 61.3 166.101C60.0297 166.101 59 167.13 59 168.401C59 169.671 60.0297 170.701 61.3 170.701Z" fill="#1C1C1C"/>
<path d="M124.7 169.1C125.97 169.1 127 168.07 127 166.8C127 165.53 125.97 164.5 124.7 164.5C123.43 164.5 122.4 165.53 122.4 166.8C122.4 168.07 123.43 169.1 124.7 169.1Z" fill="#1C1C1C"/>
<path d="M168.4 123.1C169.67 123.1 170.7 122.07 170.7 120.8C170.7 119.53 169.67 118.5 168.4 118.5C167.13 118.5 166.1 119.53 166.1 120.8C166.1 122.07 167.13 123.1 168.4 123.1Z" fill="#1C1C1C"/>
<path d="M166.8 59.7006C168.07 59.7006 169.1 58.6708 169.1 57.4006C169.1 56.1303 168.07 55.1006 166.8 55.1006C165.53 55.1006 164.5 56.1303 164.5 57.4006C164.5 58.6708 165.53 59.7006 166.8 59.7006Z" fill="#1C1C1C"/>
<path d="M120.8 16.0004C122.07 16.0004 123.1 14.9706 123.1 13.7004C123.1 12.4301 122.07 11.4004 120.8 11.4004C119.53 11.4004 118.5 12.4301 118.5 13.7004C118.5 14.9706 119.53 16.0004 120.8 16.0004Z" fill="#1C1C1C"/>
<path d="M74.7 87.4006C74.7 84.1006 74.5001 82.3006 74.3001 80.5006H81.5C81.2 82.4006 81.1 84.5006 81.1 87.5006V92.6006H89.2C92.7 92.6006 93.9 92.5006 96 92.2006V98.7006C94 98.4006 92.4 98.3006 89.2 98.3006H81V115.601C86.8 114.201 90.2 113.201 98.1 111.001L98.2 117.101C82 121.601 72.4001 123.801 56.9001 126.801C55.0001 127.101 53.7 127.401 51.6 127.901L50.3 120.901C52.4 120.901 55.1001 120.601 58.7001 120.101V97.0006C58.7001 93.5006 58.5001 91.4006 58.2001 89.3006H65.3001C65.0001 91.5006 64.9001 93.5006 64.9001 96.6006V118.901C68.3001 118.301 71.4001 117.601 74.8001 117.001V87.4006H74.7ZM116.5 72.5006C120.2 72.5006 122.7 72.3006 125.1 72.0006V78.9006C122.7 78.6006 119.9 78.4006 116.1 78.4006H105.2C105.8 90.6006 107.3 100.501 109.7 107.801C112.1 115.001 115.8 120.901 117.8 120.901C118.3 120.901 119.1 120.101 119.4 119.101C120.2 116.801 120.6 114.001 121.3 107.601C123.7 109.801 125 110.701 127 111.601C125.1 123.701 122.5 128.701 118.3 128.701C113.4 128.701 107.7 121.801 104.1 111.501C101.2 103.101 99.5 92.8006 98.6 78.4006H60.1C56.6 78.4006 53.7 78.6006 51.1 78.9006V72.0006C53.5 72.3006 56.2 72.5006 60.1 72.5006H98.5C98.3 69.3006 98.2 64.5006 98.2 61.5006C98.2 57.8006 98 55.4006 97.7 53.6006H105.2C104.9 55.4006 104.8 57.4006 104.8 60.3006C104.8 61.0006 104.8 65.0006 105 72.5006H116.5ZM90.1 65.0006C87.8 64.7006 85.6 64.6006 82.6 64.6006H66.1C62.8 64.6006 60.7001 64.7006 58.4001 65.0006V58.4006C60.7001 58.7006 62.5 58.8006 66 58.8006H82.5C86.1 58.8006 87.6 58.7006 90.2 58.4006V65.0006H90.1ZM117.4 70.4006C114.1 65.0006 112 62.4006 107.7 58.4006L112.6 55.7006C117.3 60.0006 119.3 62.3006 122.4 67.3006L117.4 70.4006Z" fill="white"/>
</g>
<defs>
<clipPath id="clip0">
<rect width="182.1" height="182.1" fill="white"/>
</clipPath>
</defs>
</svg>
