<svg width="375" height="464" viewBox="0 0 375 464" fill="none" xmlns="http://www.w3.org/2000/svg">
<path d="M221.63 351.77C302.83 356.44 364.04 377.31 364.04 402.34C364.04 430.79 284.81 453.88 187.02 453.88C89.26 453.88 10 430.79 10 402.34C10 377.6 69.8 356.95 149.57 351.93C164.08 375.03 176.94 395.62 185.45 410.96C194.25 395.08 207.17 374.55 221.63 351.77Z" fill="#BDC3C7"/>
<path d="M185.45 10C262.06 10 324.17 72.11 324.17 148.74C324.17 191.99 265.72 282.33 221.63 351.77C207.17 374.55 194.25 395.08 185.45 410.96C176.94 395.62 164.08 375.03 149.57 351.93C105.71 282.14 46.71 189.36 46.71 148.74C46.71 72.11 108.82 10 185.45 10ZM247.43 143.51C247.43 109.35 219.59 81.5 185.45 81.5C151.29 81.5 123.45 109.35 123.45 143.51C123.45 177.65 151.29 205.49 185.45 205.49C219.59 205.49 247.43 177.65 247.43 143.51Z" fill="#E74C3C"/>
<path d="M187.02 463.88C138.825 463.88 93.379 458.375 59.054 448.38C20.42 437.129 0 421.209 0 402.34C0 364.683 80.234 346.273 148.942 341.949C154.441 341.593 159.204 345.789 159.55 351.302C159.897 356.814 155.71 361.564 150.197 361.91C112.157 364.304 77.72 370.43 53.228 379.159C28.703 387.901 20 397.11 20 402.34C20 407.479 29.403 418.914 64.646 429.177C97.204 438.658 140.664 443.88 187.02 443.88C233.387 443.88 276.851 438.658 309.405 429.177C344.639 418.915 354.04 407.48 354.04 402.34C354.04 388.877 306.684 366.678 221.056 361.753C215.542 361.436 211.329 356.709 211.647 351.195C211.964 345.681 216.677 341.451 222.205 341.786C292.248 345.814 374.041 364.09 374.041 402.34C374.041 421.21 353.624 437.13 314.999 448.38C280.677 458.375 235.227 463.88 187.02 463.88Z" fill="black"/>
<path d="M185.45 420.959C181.816 420.959 178.469 418.988 176.705 415.811C168.441 400.915 155.691 380.476 141.101 357.249L141.102 357.251L137.718 351.867C92.717 280.288 36.71 191.206 36.71 148.74C36.71 66.724 103.435 0 185.45 0C267.454 0 334.17 66.724 334.17 148.74C334.17 193.324 281.452 276.279 234.939 349.469L230.072 357.13C215.598 379.932 202.908 400.086 194.197 415.806C192.435 418.986 189.088 420.958 185.453 420.959C185.452 420.959 185.451 420.959 185.45 420.959ZM185.45 20C114.462 20 56.71 77.752 56.71 148.74C56.71 185.442 113.317 275.48 154.65 341.223L158.036 346.609C158.036 346.61 158.037 346.611 158.037 346.611C168.7 363.586 177.942 378.369 185.451 390.974C193.296 377.83 202.79 362.789 213.186 346.411L218.058 338.742C258.62 274.917 314.17 187.506 314.17 148.74C314.17 77.752 256.426 20 185.45 20Z" fill="black"/>
<path d="M185.45 215.49C145.749 215.49 113.45 183.2 113.45 143.51C113.45 103.803 145.749 71.5 185.45 71.5C225.14 71.5 257.43 103.803 257.43 143.51C257.43 183.2 225.14 215.49 185.45 215.49ZM185.45 91.5C156.777 91.5 133.45 114.832 133.45 143.51C133.45 172.172 156.777 195.49 185.45 195.49C214.112 195.49 237.43 172.172 237.43 143.51C237.43 114.831 214.112 91.5 185.45 91.5Z" fill="black"/>
</svg>
