<svg width="14" height="14" viewBox="0 0 14 14" fill="none" xmlns="http://www.w3.org/2000/svg">
<path d="M2.58471 7.47924L10.168 12.7292C10.2556 12.7898 10.358 12.8253 10.4642 12.8318C10.5704 12.8383 10.6764 12.8156 10.7707 12.7663C10.8649 12.7169 10.9439 12.6426 10.999 12.5516C11.0541 12.4605 11.0833 12.3562 11.0833 12.2497V1.74974C11.0834 1.64326 11.0543 1.5388 10.9992 1.44767C10.9442 1.35655 10.8652 1.28223 10.7709 1.23277C10.6766 1.18331 10.5706 1.1606 10.4643 1.1671C10.3581 1.17361 10.2556 1.20907 10.168 1.26965L2.58471 6.51965C2.50745 6.57357 2.44436 6.64535 2.40079 6.72888C2.35722 6.81241 2.33447 6.90523 2.33447 6.99944C2.33447 7.09366 2.35722 7.18647 2.40079 7.27001C2.44436 7.35354 2.50745 7.42532 2.58471 7.47924V7.47924Z" fill="white"/>
</svg>
