<svg width="109" height="38" viewBox="0 0 109 38" fill="none" xmlns="http://www.w3.org/2000/svg">
<g clip-path="url(#clip0)">
<path d="M38.0819 14.9454C37.9342 11.1596 35.7797 7.94215 32.7289 6.37912C32.296 6.15582 31.9394 5.81074 31.7102 5.38446C31.1856 4.42532 30.493 3.52709 29.6373 2.74049C26.8411 0.162502 23.0365 -0.588567 19.7666 0.451765C19.3031 0.598933 18.804 0.604008 18.3405 0.466989C17.2862 0.157427 16.1657 0.0102581 14.9994 0.0559312C11.1998 0.2031 7.97071 2.34973 6.402 5.38953C6.1779 5.82089 5.83156 6.17612 5.40373 6.40449C4.43601 6.93227 3.53961 7.62244 2.75016 8.475C0.167892 11.256 -0.590998 15.0519 0.458206 18.3049C0.60591 18.7667 0.611003 19.264 0.473486 19.7258C0.162799 20.7763 0.0150956 21.8927 0.0609346 23.0549C0.203545 26.8457 2.36307 30.0581 5.41391 31.6211C5.84684 31.8444 6.20336 32.1895 6.43256 32.6158C6.95716 33.5749 7.64984 34.4731 8.5055 35.2597C11.2966 37.8326 15.1063 38.5888 18.3711 37.5434C18.8346 37.3962 19.3337 37.3911 19.7972 37.5282C20.8515 37.8377 21.972 37.9849 23.1383 37.9392C26.9379 37.792 30.167 35.6454 31.7357 32.6056C31.9598 32.1743 32.3061 31.819 32.734 31.5907C33.6966 31.068 34.5981 30.3778 35.3875 29.5252C37.9698 26.7442 38.7287 22.9483 37.6795 19.6954C37.5318 19.2336 37.5267 18.7362 37.6642 18.2744C37.98 17.2239 38.1226 16.1024 38.0819 14.9454Z" fill="white"/>
<path d="M15.5848 37.4874C13.1197 37.4874 10.6597 36.5435 8.75481 34.7876C7.9297 34.0264 7.24721 33.1536 6.71243 32.1843C6.51379 31.824 6.21838 31.5296 5.85167 31.3419C2.73462 29.7433 0.712612 26.5107 0.570002 22.8974C0.524163 21.781 0.66168 20.6797 0.977459 19.6191C1.0946 19.2233 1.08951 18.8071 0.967273 18.4164C-0.102304 15.0873 0.763544 11.3726 3.22866 8.72353C3.99265 7.90141 4.86868 7.22139 5.84148 6.68854C6.2031 6.49062 6.49851 6.19628 6.68696 5.8309C8.29132 2.72513 11.5408 0.705363 15.1672 0.568343C16.2877 0.52267 17.398 0.65969 18.4574 0.974326C18.8547 1.09105 19.2723 1.08597 19.6594 0.964177C23.0005 -0.101528 26.7288 0.761185 29.3874 3.21738C30.2125 3.9786 30.895 4.85146 31.4298 5.82075C31.6285 6.18106 31.9239 6.4754 32.2906 6.66316C35.4076 8.26172 37.4347 11.4994 37.5722 15.1127C37.6181 16.2291 37.4806 17.3304 37.1648 18.391C37.0476 18.7868 37.0527 19.203 37.175 19.5937C38.2446 22.9228 37.3787 26.6375 34.9136 29.2866C34.1496 30.1087 33.2736 30.7887 32.3008 31.3216C31.9341 31.5195 31.6437 31.8138 31.4553 32.1792C29.8509 35.285 26.6014 37.3047 22.9751 37.4417C21.8546 37.4823 20.7442 37.3504 19.6849 37.0358C19.2876 36.919 18.8699 36.9241 18.4778 37.0459C17.5406 37.3403 16.5627 37.4874 15.5848 37.4874ZM15.5644 1.1215C15.4371 1.1215 15.3098 1.1215 15.1774 1.12657C11.7547 1.25851 8.68859 3.16156 7.17591 6.08971C6.93653 6.55152 6.56472 6.93213 6.10124 7.18079C5.18446 7.67812 4.34917 8.32769 3.63103 9.10413C1.30343 11.6111 0.483417 15.1127 1.49187 18.2489C1.64976 18.7462 1.65486 19.274 1.50715 19.7764C1.21175 20.7761 1.08442 21.8216 1.12516 22.8771C1.26268 26.2874 3.17264 29.3424 6.11142 30.8496C6.57491 31.0881 6.9569 31.4586 7.20647 31.9204C7.7056 32.8338 8.35753 33.6661 9.1368 34.3816C11.6528 36.7008 15.1672 37.5179 18.3148 36.5131C18.8139 36.3557 19.3436 36.3507 19.8478 36.4978C20.8512 36.7922 21.9004 36.919 22.9598 36.8784C26.3824 36.7465 29.4486 34.8435 30.9612 31.9153C31.2006 31.4535 31.5724 31.0729 32.0359 30.8242C32.9527 30.3269 33.788 29.6773 34.5061 28.9009C36.8337 26.3939 37.6537 22.8923 36.6453 19.7561C36.4874 19.2588 36.4823 18.731 36.63 18.2286C36.9254 17.2289 37.0527 16.1835 37.012 15.1279C36.8796 11.7177 34.9696 8.66263 32.0308 7.15542C31.5673 6.9169 31.1854 6.54644 30.9358 6.08464C30.4366 5.17118 29.7847 4.33891 29.0054 3.62337C26.4894 1.30419 22.97 0.487147 19.8224 1.49195C19.3232 1.64927 18.7935 1.65435 18.2893 1.50718C17.4082 1.24837 16.4914 1.1215 15.5644 1.1215Z" fill="black"/>
<path d="M34.4349 15.7216C34.3177 12.6615 32.5707 10.0632 30.1056 8.79452C29.7542 8.6169 29.469 8.33271 29.2805 7.98762C28.8578 7.21118 28.2975 6.49056 27.6048 5.85114C25.3486 3.77048 22.2722 3.1615 19.6289 4.00392C19.252 4.12571 18.8496 4.12571 18.4727 4.01407C17.6221 3.7654 16.7155 3.64868 15.7733 3.6842C12.7021 3.80092 10.0944 5.54158 8.82106 7.99777C8.64279 8.34793 8.35757 8.63212 8.01124 8.81989C7.23197 9.2411 6.50874 9.79932 5.86699 10.4895C3.77877 12.7376 3.16758 15.8028 4.01306 18.4366C4.1353 18.8121 4.1353 19.2131 4.02325 19.5886C3.77368 20.4361 3.65653 21.3394 3.69219 22.2782C3.80933 25.3383 5.5563 27.9366 8.02142 29.2053C8.37285 29.3829 8.65807 29.6671 8.84652 30.0122C9.26926 30.7886 9.82951 31.5093 10.5222 32.1487C12.7785 34.2293 15.8548 34.8383 18.4982 33.9959C18.8751 33.8741 19.2774 33.8741 19.6543 33.9858C20.5049 34.2344 21.4115 34.3511 22.3537 34.3156C25.4249 34.1989 28.0327 32.4582 29.306 30.0021C29.4842 29.6519 29.7695 29.3677 30.1158 29.1799C30.8951 28.7587 31.6183 28.2005 32.26 27.5103C34.3483 25.2622 34.9595 22.197 34.114 19.5632C33.9917 19.1877 33.9917 18.7868 34.1038 18.4112C34.3534 17.5637 34.4705 16.6604 34.4349 15.7216Z" fill="black"/>
<path d="M12.0305 3.67379C12.2949 3.67379 12.5093 3.46021 12.5093 3.19676C12.5093 2.9333 12.2949 2.71973 12.0305 2.71973C11.7661 2.71973 11.5518 2.9333 11.5518 3.19676C11.5518 3.46021 11.7661 3.67379 12.0305 3.67379Z" fill="black"/>
<path d="M2.87818 13.2656C3.14259 13.2656 3.35694 13.052 3.35694 12.7886C3.35694 12.5251 3.14259 12.3115 2.87818 12.3115C2.61376 12.3115 2.39941 12.5251 2.39941 12.7886C2.39941 13.052 2.61376 13.2656 2.87818 13.2656Z" fill="black"/>
<path d="M3.20923 26.4902C3.47365 26.4902 3.68799 26.2766 3.68799 26.0132C3.68799 25.7497 3.47365 25.5361 3.20923 25.5361C2.94482 25.5361 2.73047 25.7497 2.73047 26.0132C2.73047 26.2766 2.94482 26.4902 3.20923 26.4902Z" fill="black"/>
<path d="M12.8352 35.6098C13.0996 35.6098 13.314 35.3962 13.314 35.1328C13.314 34.8693 13.0996 34.6558 12.8352 34.6558C12.5708 34.6558 12.3564 34.8693 12.3564 35.1328C12.3564 35.3962 12.5708 35.6098 12.8352 35.6098Z" fill="black"/>
<path d="M26.1086 35.2797C26.3731 35.2797 26.5874 35.0662 26.5874 34.8027C26.5874 34.5393 26.3731 34.3257 26.1086 34.3257C25.8442 34.3257 25.6299 34.5393 25.6299 34.8027C25.6299 35.0662 25.8442 35.2797 26.1086 35.2797Z" fill="black"/>
<path d="M35.261 25.6885C35.5254 25.6885 35.7397 25.4749 35.7397 25.2114C35.7397 24.948 35.5254 24.7344 35.261 24.7344C34.9966 24.7344 34.7822 24.948 34.7822 25.2114C34.7822 25.4749 34.9966 25.6885 35.261 25.6885Z" fill="black"/>
<path d="M34.9299 12.4634C35.1943 12.4634 35.4087 12.2498 35.4087 11.9863C35.4087 11.7229 35.1943 11.5093 34.9299 11.5093C34.6655 11.5093 34.4512 11.7229 34.4512 11.9863C34.4512 12.2498 34.6655 12.4634 34.9299 12.4634Z" fill="black"/>
<path d="M25.304 3.3442C25.5684 3.3442 25.7827 3.13062 25.7827 2.86717C25.7827 2.60371 25.5684 2.39014 25.304 2.39014C25.0395 2.39014 24.8252 2.60371 24.8252 2.86717C24.8252 3.13062 25.0395 3.3442 25.304 3.3442Z" fill="black"/>
<path d="M64.328 23.603H55.5983V29.1092H53.2299V23.603H44.5205V21.4259H64.328V23.603ZM62.9325 19.0459H45.8906V9.46973H62.9325V19.0459ZM60.6355 11.5961H48.1876V16.9398H60.6355V11.5961Z" fill="white"/>
<path d="M75.6549 25.3385C76.5972 25.3385 77.5394 25.2573 78.4766 25.0949C79.4137 24.9325 80.1828 24.7143 80.7889 24.4352V26.5158C80.1981 26.8102 79.4341 27.0385 78.4919 27.2111C77.5496 27.3786 76.587 27.4648 75.6142 27.4648H67.791V9.48994H70.1339V25.3385H75.6549ZM87.5935 19.0914H84.8075V28.6473H82.5104V8.89111H84.8075V16.8941H87.5935V19.0914Z" fill="white"/>
<path d="M109.001 23.486H100.246V29.1089H97.9027V23.486H89.1934V21.314H109.001V23.486ZM107.957 18.9999H90.5634V9.37305H107.722V11.4791H92.9063V16.8939H107.952V18.9999H107.957Z" fill="white"/>
<path d="M15.6511 18.244C15.6511 17.5589 15.6155 17.1884 15.5645 16.8027H17.0619C16.9906 17.2087 16.9754 17.6452 16.9754 18.2592V19.3351H18.6663C19.3895 19.3351 19.6544 19.3198 20.0924 19.2488V20.6038C19.6697 20.5327 19.3335 20.5175 18.6663 20.5175H16.9754V24.1206C18.1926 23.8212 18.8955 23.6283 20.5559 23.1564L20.5712 24.42C17.1689 25.369 15.1775 25.8257 11.9178 26.4398C11.5103 26.5108 11.2455 26.5616 10.8075 26.6681L10.5273 25.2117C10.9705 25.2117 11.5307 25.1609 12.2896 25.034V20.2384C12.2896 19.5025 12.2539 19.0813 12.1826 18.6398H13.6648C13.5935 19.0965 13.5782 19.5178 13.5782 20.1673V24.8158C14.281 24.694 14.9381 24.5519 15.6562 24.4098V18.244H15.6511ZM24.3911 15.1179C25.1653 15.1179 25.695 15.0824 26.189 15.0113V16.4526C25.6797 16.3815 25.094 16.346 24.3045 16.346H22.0329C22.1552 18.8936 22.476 20.9641 22.9854 22.4764C23.4794 23.9683 24.2536 25.2167 24.6763 25.2167C24.7833 25.2167 24.9412 25.0391 25.0125 24.8463C25.1704 24.3743 25.2569 23.7907 25.3995 22.4408C25.8936 22.8976 26.1737 23.0904 26.5965 23.268C26.189 25.7953 25.6644 26.8356 24.7833 26.8356C23.7595 26.8356 22.5626 25.3944 21.8037 23.2528C21.1875 21.4969 20.836 19.3554 20.6578 16.3511H12.5799C11.8567 16.3511 11.2404 16.3866 10.6954 16.4577V15.0164C11.1895 15.0875 11.7548 15.123 12.5799 15.123H20.617C20.5814 14.4531 20.5661 13.4534 20.5661 12.8241C20.5661 12.0527 20.5304 11.5402 20.4591 11.1748H22.0278C21.9565 11.5453 21.9412 11.9665 21.9412 12.5805C21.9412 12.7226 21.9412 13.565 21.9769 15.1281H24.3911V15.1179ZM18.8751 13.5549C18.4015 13.4838 17.9227 13.4686 17.3064 13.4686H13.8328C13.1453 13.4686 12.7021 13.4838 12.2285 13.5549V12.1847C12.7021 12.2557 13.0943 12.271 13.8125 12.271H17.2657C18.0246 12.271 18.3403 12.2557 18.87 12.1847V13.5549H18.8751ZM24.5846 14.6815C23.897 13.5549 23.4539 13.0119 22.5575 12.1695L23.5813 11.6062C24.5694 12.5044 24.9717 12.9764 25.644 14.0319L24.5846 14.6815Z" fill="white"/>
</g>
<defs>
<clipPath id="clip0">
<rect width="109" height="38" fill="white"/>
</clipPath>
</defs>
</svg>
