<svg width="14" height="14" viewBox="0 0 14 14" fill="none" xmlns="http://www.w3.org/2000/svg">
<path d="M11.4153 6.52076L3.83196 1.27076C3.74444 1.21021 3.64203 1.17475 3.53581 1.16822C3.42958 1.1617 3.3236 1.18436 3.22933 1.23374C3.13506 1.28313 3.0561 1.35737 3.001 1.44841C2.94589 1.53946 2.91674 1.64384 2.91671 1.75026L2.91671 12.2503C2.91664 12.3567 2.94571 12.4612 3.00077 12.5523C3.05583 12.6435 3.13479 12.7178 3.22907 12.7672C3.32336 12.8167 3.42939 12.8394 3.53566 12.8329C3.64193 12.8264 3.7444 12.7909 3.83196 12.7303L11.4153 7.48035C11.4925 7.42643 11.5556 7.35465 11.5992 7.27112C11.6428 7.18759 11.6655 7.09477 11.6655 7.00056C11.6655 6.90634 11.6428 6.81353 11.5992 6.72999C11.5556 6.64646 11.4925 6.57468 11.4153 6.52076V6.52076Z" fill="white"/>
</svg>
